<?xml version="1.0" encoding="UTF-8"?>
<svg width="16px" height="13px" viewBox="0 0 16 13" version="1.1" xmlns="http://www.w3.org/2000/svg" xmlns:xlink="http://www.w3.org/1999/xlink">
    <!-- Generator: Sketch 49.1 (51147) - http://www.bohemiancoding.com/sketch -->
    <title>Fill 118</title>
    <desc>Created with Sketch.</desc>
    <defs></defs>
    <g id="Welcome" stroke="none" stroke-width="1" fill="none" fill-rule="evenodd">
        <g id="Desktop" transform="translate(-52.000000, -747.000000)" fill="#FFFFFF">
            <path d="M68,760 L64.7933836,760 L64.7933836,755.72926 C64.7933836,754.710967 64.7721029,753.401262 63.126717,753.401262 C61.4581157,753.401262 61.2037145,754.51093 61.2037145,755.656819 L61.2037145,760 L58,760 L58,751.218147 L61.0740956,751.218147 L61.0740956,752.41919 L61.1185916,752.41919 C61.5461405,751.728528 62.5927646,751 64.1530277,751 C67.4002708,751 68,752.81844 68,755.183481 L68,760 Z M54.0015605,750 C52.8936281,750 52,749.327613 52,748.5 C52,747.672387 52.8936281,747 54.0015605,747 C55.1042913,747 56,747.672387 56,748.5 C56,749.327613 55.1042913,750 54.0015605,750 L54.0015605,750 Z M55,760 L52,760 L52,751 L55,751 L55,760 Z" id="Fill-118"></path>
        </g>
    </g>
</svg>