<?xml version="1.0" encoding="UTF-8"?>
<svg width="16px" height="13px" viewBox="0 0 16 13" version="1.1" xmlns="http://www.w3.org/2000/svg" xmlns:xlink="http://www.w3.org/1999/xlink">
    <!-- Generator: Sketch 49.1 (51147) - http://www.bohemiancoding.com/sketch -->
    <title>Group</title>
    <desc>Created with Sketch.</desc>
    <defs></defs>
    <g id="Welcome" stroke="none" stroke-width="1" fill="none" fill-rule="evenodd">
        <g id="Desktop" transform="translate(-182.000000, -747.000000)" fill="#FFFFFF" fill-rule="nonzero">
            <g id="Group" transform="translate(182.000000, 747.000000)">
                <path d="M15.0918351,2.29863876 L10.0662754,0.0166395774 C10.0435906,0.00633888663 10.0182883,0.00158472166 9.99385849,0.000792360829 C9.99211351,0.000792360829 9.99036852,0 9.98862354,0 C9.92754903,0 9.86647452,0.027732629 9.83419227,0.0760666396 L6.73684211,4.64719626 L10.1945319,9.75 L15.1406947,2.45077204 C15.1764669,2.39768387 15.1546546,2.32716375 15.0918351,2.29863876 Z" id="Shape"></path>
                <polygon id="Shape" points="5.89473684 3.25 5.89473684 8.31312646 10.9473684 10.5625"></polygon>
                <path d="M10.9473684,10.8330307 L15.5434696,12.9555096 C15.7943802,13.0709618 16,12.9538364 16,12.695324 L16,3.25 L10.9473684,10.8330307 Z" id="Shape"></path>
                <path d="M4.99092232,2.38722721 L0.56019706,0.170218228 L0.28009853,0.0300385109 C0.240084454,0.010012837 0.201737632,0 0.166725316,0 C0.117541347,0 0.0758600186,0.0191912709 0.0458494618,0.0550706033 C0.0175061581,0.0901155327 0,0.140179718 0,0.202759949 L0,10.3240693 C0,10.4959564 0.125877613,10.7003851 0.28009853,10.7771502 L4.63329652,12.9557766 C4.69415126,12.9858151 4.75167149,13 4.80335634,13 C4.95007462,13 5.05261069,12.8865212 5.05261069,12.6954429 L5.05261069,2.48818999 C5.05344431,2.44563543 5.02926914,2.40641849 4.99092232,2.38722721 Z" id="Shape"></path>
            </g>
        </g>
    </g>
</svg>