<?xml version="1.0" encoding="UTF-8"?>
<svg width="18px" height="18px" viewBox="0 0 18 18" version="1.1" xmlns="http://www.w3.org/2000/svg" xmlns:xlink="http://www.w3.org/1999/xlink">
    <!-- Generator: Sketch 49.1 (51147) - http://www.bohemiancoding.com/sketch -->
    <title>Shape</title>
    <desc>Created with Sketch.</desc>
    <defs></defs>
    <g id="Welcome" stroke="none" stroke-width="1" fill="none" fill-rule="evenodd">
        <g id="Desktop" transform="translate(-962.000000, -40.000000)" fill="#FFFFFF">
            <path d="M974,52 L962,52 L962,54 L974,54 L974,52 L974,52 Z M974,44 L962,44 L962,46 L974,46 L974,44 L974,44 Z M962,50 L980,50 L980,48 L962,48 L962,50 L962,50 Z M962,58 L980,58 L980,56 L962,56 L962,58 L962,58 Z M962,40 L962,42 L980,42 L980,40 L962,40 L962,40 Z" id="Shape"></path>
        </g>
    </g>
</svg>