<?xml version="1.0" encoding="utf-8"?>
<!-- Generator: Adobe Illustrator 24.0.1, SVG Export Plug-In . SVG Version: 6.00 Build 0)  -->
<svg version="1.1" id="Layer_1" xmlns="http://www.w3.org/2000/svg" xmlns:xlink="http://www.w3.org/1999/xlink" x="0px" y="0px"
	 viewBox="0 0 1408.5 425.2" style="enable-background:new 0 0 1408.5 425.2;" xml:space="preserve">
<style type="text/css">
	.st0{fill:#FFFFFF;}
</style>
<g>
	<g>
		<path class="st0" d="M37.8,138.6c0.9-23.7,54.8-67.7,70.4-67.7c6,0,45.9,21.6,45.9,30.6c0.9,0.3-23.1,35.7-26.4,35.7
			c-0.6,0-0.9-0.6-0.9-1.2c0-0.3,0-0.6,0.3-0.9c3.3-3.6,3.9-4.5,4.2-8.1c0-16.2-30.6-34.2-43.2-34.2c-15,0-27.3,12.9-27.3,24
			c0,14.4,10.2,21,40.8,41.4l6.3,4.2c28.2,18.9,44.1,29.4,44.1,51.5c0,45.6-27.9,99.5-80.3,99.5c-40.5,0-67.4-53.9-67.4-77.3
			c0-5.1,10.8-38.7,50.6-38.7c0.9,0,1.8,0.3,1.8,1.2c0,0.6-0.3,0.9-0.6,0.9c-12.9,3.3-38.4,5.4-38.4,23.4c0,23.7,50,74.3,68,74.3
			c39,0,42-21.9,42-52.7c0-25.5-16.2-43.2-47.1-63.5c-28.8-18.9-39.3-23.7-42.3-37.8C38.1,141.6,37.8,140.1,37.8,138.6z"/>
		<path class="st0" d="M202.6,174.9c6.6,0,11.4,5.4,15.9,10.8c20.1,23.7,34.2,38.7,39.3,46.5c-0.9-0.3-1.8-0.6-2.7-0.6
			c-9.3,0-19.2,22.5-25.8,22.5c0-0.9-7.2-23.1-11.7-23.1c-2.1,0.3-3.9-0.3-12,5.1l-3.6,2.4c-13.8,9-21,14.7-30.6,14.7
			c-5.7,0-11.7-2.4-11.7-7.5c0-4.5,4.8-9,7.8-12.3l18.9-19.5c2.1-1.2,3.3-1.5,3.9-1.5s0.6,0.3,0.6,0.6c0,1.8-9,10.2-9,15.9
			c0,5.4,3.3,8.1,10.2,8.1c11.7,0,20.1-10.8,20.1-12.9c-1.8-2.4-25.8-33-33-33c-1.8,0-7.2,3.3-10.5,7.5c-0.6,0-3-0.9-2.7-1.5
			C170.5,191,191.5,174.9,202.6,174.9z"/>
		<path class="st0" d="M303.6,174.9c6.6,0,11.4,5.4,15.9,10.8c20.1,23.7,34.2,38.7,39.3,46.5c-0.9-0.3-1.8-0.6-2.7-0.6
			c-9.3,0-19.2,22.5-25.8,22.5c0-0.9-7.2-23.1-11.7-23.1c-2.1,0.3-3.9-0.3-12,5.1l-3.6,2.4c-13.8,9-21,14.7-30.6,14.7
			c-5.7,0-11.7-2.4-11.7-7.5c0-4.5,4.8-9,7.8-12.3l18.9-19.5c2.1-1.2,3.3-1.5,3.9-1.5s0.6,0.3,0.6,0.6c0,1.8-9,10.2-9,15.9
			c0,5.4,3.3,8.1,10.2,8.1c11.7,0,20.1-10.8,20.1-12.9c-1.8-2.4-25.8-33-33-33c-1.8,0-7.2,3.3-10.5,7.5c-0.6,0-3-0.9-2.7-1.5
			C271.5,191,292.5,174.9,303.6,174.9z"/>
		<path class="st0" d="M363.8,179.4c1.5,0,46.8-0.3,46.8,0.3c0,6-24.9,13.8-24.9,30c0,8.7,11.7,15,18.9,15
			c13.8,0,31.2-9.3,31.2-27.6c0-10.2-8.4-13.5-37.5-37.2c-18.3-14.7-31.2-18.3-31.2-34.2c0-17.1,6.6-24.9,41.7-54.5h3.9
			c-11.4,9.9-26.7,28.2-26.7,34.2c0,14.7,15,21.9,36.6,37.5c12,9,29.1,24.9,29.1,40.5c0,6.3-30.3,71.9-57.8,71.9
			c-11.4,0-31.8-18-31.8-31.2c0-24.3,21-29.4,36.3-39c0,0-25.5,4.2-34.5,9.6V179.4z"/>
		<path class="st0" d="M664.7,191.6c-3.3,21.9-12.3,53.9-20.1,65.6c-9,12.9-53.6,48.8-65.3,61.7l-2.4-4.2
			c5.7-5.7,47.1-45.3,51.5-57.2c2.7-7.2,6.6-15.3,7.8-22.2l18.9-128.3c1.8-12.9-2.4-24-17.1-24c-14.1,0-79.4,29.1-79.4,53.9
			c0,15.9,32.7,29.4,59.9,37.8c1.5,0.9,1.8,3.9-0.6,3.9c-18.6,0-72.5-21-72.5-35.1c0-33,92-78.5,117.8-78.5
			c13.2,0,17.1,10.5,17.1,24.9c0,1.2-0.3,4.2-0.9,8.4L664.7,191.6z M743.5,84.7c0-1.2,0.3-2.1,0.3-3.3c0-3.6-0.9-7.2-3.3-10.8h53.9
			c-21.3,3.3-31.8,7.2-41.1,20.1c-16.2,22.5-51.2,66.8-62.3,81.2c-0.6,0.6-0.6,0.9-0.6,1.5c0,16.5,56.6,79.1,94.1,93.5
			c1.2,0.6,3.3,0.9,4.8,0.9c9.3,0,24.6-6.6,29.4-12.3l0.9,3.3c-7.2,6.9-28.8,25.8-50.6,25.8c-47,0-99.8-88.7-99.8-97.1
			C678.8,180.6,741.7,96.1,743.5,84.7z"/>
		<path class="st0" d="M766.6,71.5h49.7c3.3,10.2,7.2,25.8,7.8,42.3c0.3,12.6,0.3,24,0.3,34.2c0,38.1-1.8,60.2-2.1,65.6l1.2-1.5
			c12.6-14.1,30.3-33.9,42.6-33.9c7.2,0,10.8,7.5,10.8,22.8c0,22.5-42,84.2-64.1,122.9L798.6,334c48.5-82.4,53.3-92.6,53.3-104.9
			c0-12.6-7.8-18-12.6-18c-9.3,0-29.7,29.7-39.6,45.3c4.5-34.2,6.3-59.6,6.3-87.5c0-10.5,0-21.3-0.3-33.3
			C804.9,96.1,790.9,78.7,766.6,71.5z"/>
		<path class="st0" d="M990.1,232.4c1.2,0,2.4-0.3,3.3-0.6c0,4.5-13.8,21.6-19.8,21.6c-12.3,0-21.9-20.1-24.9-30
			c-6,8.7-24.3,29.4-34.8,29.4c-35.4,0,3-59.9-38.4-73.4l45.9,0.6c-0.9,6.6-1.5,12.3-1.5,18c0,19.2,1.5,30.9,10.8,30.9
			c10.5,0,31.5-50.9,40.2-69.8c-0.6,3.6-0.6,7.5-0.6,12c0,18.3,3.9,41.7,10.2,54.8C983,230.9,986.8,232.4,990.1,232.4z"/>
		<path class="st0" d="M1038.1,197.9c3.9,14.7,5.1,27,8.7,34.8c-0.3-0.6-31.8,28.2-39,45c5.1-23.1,8.7-37.8,8.7-50.6
			c0-10.8-4.2-39.3-25.8-48.2h41.1c1.8,4.5,3.3,9,4.5,13.5c5.7-6,14.7-16.5,22.8-16.5c9.3,0,21,7.8,30,13.8
			c-9.6,0-15.6,10.8-21.6,22.5C1059.4,204.5,1045.9,200.3,1038.1,197.9z"/>
		<path class="st0" d="M1100.1,209.6c0-10.2,9.9-24.6,18.3-30.3h44.4c-2.4,3.9-12.6,24.6-13.8,24.6c-1.2,0-12.6-13.5-24.3-13.5
			c-4.5,0-5.1,0.3-5.1,1.8c0,9.9,43.5,16.8,43.5,22.5c0,18.3-24,44.4-30.3,44.4c-6.3,0-39.6-9-39.6-14.1c3.9,0,14.7-18.3,14.7-23.4
			c8.7,1.5,18.3,21.3,28.5,22.2c3,0,8.4-2.7,8.4-6.6c0-6.3-13.5-9.9-24-13.8C1110,219.2,1100.1,217.7,1100.1,209.6z"/>
		<path class="st0" d="M1141.8,71.5h49.7c3.3,10.2,7.2,25.8,7.8,42.3c0.3,12.6,0.3,24,0.3,34.2c0,38.1-1.8,60.2-2.1,65.6l1.2-1.5
			c12.6-14.1,30.3-33.9,42.6-33.9c7.2,0,10.8,7.5,10.8,22.8c0,22.5-42,84.2-64.1,122.9l-14.1,10.2c48.5-82.4,53.3-92.6,53.3-104.9
			c0-12.6-7.8-18-12.6-18c-9.3,0-29.7,29.7-39.6,45.3c4.5-34.2,6.3-59.6,6.3-87.5c0-10.5,0-21.3-0.3-33.3
			C1180.1,96.1,1166,78.7,1141.8,71.5z"/>
		<path class="st0" d="M1295.5,190.2c0,10.2-1.2,20.7-1.5,24.6c0,1.5,1.2,19.5,20.4,19.5c1.2,0,2.7,0,4.5-0.3
			c-8.4,9-22.2,24.3-38.1,27.9c-5.4-3.6-13.5-21.3-13.5-32.4c0-6.3,3-13.5,3.9-21.6c0-12.3-9-24.3-16.8-28.5c0,0,13.2,0.3,29.4,0.3
			C1288.9,179.7,1295.5,184.2,1295.5,190.2z M1264.3,147c3-1.2,20.4-17.1,26.1-24c1.8,14.1,14.4,18.6,17.7,22.5
			c-6.3,2.7-15.9,10.5-21.9,20.1C1279.9,154.5,1264.3,148.2,1264.3,147z"/>
		<path class="st0" d="M1318.6,179.4c1.5,0,46.8-0.3,46.8,0.3c0,6-24.9,13.8-24.9,30c0,8.7,11.7,15,18.9,15
			c13.8,0,31.2-9.3,31.2-27.6c0-10.2-8.4-13.5-37.5-37.2c-18.3-14.7-31.2-18.3-31.2-34.2c0-17.1,6.6-24.9,41.7-54.5h3.9
			c-11.4,9.9-26.7,28.2-26.7,34.2c0,14.7,15,21.9,36.6,37.5c12,9,29.1,24.9,29.1,40.5c0,6.3-30.3,71.9-57.8,71.9
			c-11.4,0-31.8-18-31.8-31.2c0-24.3,21-29.4,36.3-39c0,0-25.5,4.2-34.5,9.6V179.4z"/>
	</g>
	<g>
		<path class="st0" d="M288.8,424.3c0,0,424.4-81.6,648.8-66.1"/>
		<path class="st0" d="M288.6,423.4c26.1-8.4,52.7-15.1,79.2-21.7c26.6-6.4,53.3-12.2,80.1-17.5c13.4-2.6,26.8-5.2,40.3-7.5
			c13.4-2.5,26.9-4.6,40.4-6.8c13.5-2.1,27-4.1,40.5-6c6.8-0.9,13.5-1.8,20.3-2.7c6.8-0.8,13.6-1.8,20.3-2.5
			c54.3-6.4,108.9-10.7,163.7-11.9c6.9-0.2,13.7-0.2,20.6-0.3c6.9,0,13.7,0,20.6,0.1l5.1,0.1l5.1,0.1c3.4,0.1,6.9,0.2,10.3,0.3
			l10.3,0.4c3.4,0.2,6.9,0.3,10.3,0.5c27.4,1.7,54.8,4,81.8,9.2l-0.1,1.8c-27.1-1.7-54.4-1.8-81.6-1.3c-27.2,0.5-54.4,1.6-81.5,3.5
			c-54.3,3.5-108.5,9-162.5,15.4c-27,3.2-54,6.6-81,10.2c-27,3.7-53.9,7.5-80.8,11.6c-26.9,4.1-53.8,8.4-80.6,12.8
			c-26.9,4.4-53.7,8.9-80.5,13.9L288.6,423.4z"/>
	</g>
	<path class="st0" d="M939.2,356.2c0,10.2-8.3,18.4-18.4,18.4c-10,0-18.2-8-18.4-17.9c0-0.2,0-0.3,0-0.5c0-10.2,8.3-18.4,18.4-18.4
		C931,337.7,939.2,346,939.2,356.2z"/>
</g>
</svg>
