<?xml version="1.0" encoding="UTF-8"?>
<svg width="16px" height="13px" viewBox="0 0 16 13" version="1.1" xmlns="http://www.w3.org/2000/svg" xmlns:xlink="http://www.w3.org/1999/xlink">
    <!-- Generator: Sketch 49.1 (51147) - http://www.bohemiancoding.com/sketch -->
    <title>Fill 93</title>
    <desc>Created with Sketch.</desc>
    <defs></defs>
    <g id="Welcome" stroke="none" stroke-width="1" fill="none" fill-rule="evenodd">
        <g id="Desktop" transform="translate(-136.000000, -747.000000)" fill="#FFFFFF">
            <path d="M150.372,750.664 C150.372,755.001 147.07,760.003 141.032,760.003 C139.178,760.003 137.453,759.46 136,758.529 C136.257,758.559 136.518,758.574 136.783,758.574 C138.321,758.574 139.736,758.05 140.86,757.169 C139.423,757.143 138.211,756.194 137.793,754.89 C137.994,754.928 138.199,754.948 138.411,754.948 C138.71,754.948 139,754.908 139.276,754.833 C137.774,754.532 136.643,753.205 136.643,751.615 L136.643,751.573 C137.085,751.819 137.592,751.967 138.13,751.984 C137.249,751.395 136.669,750.39 136.669,749.252 C136.669,748.65 136.831,748.086 137.114,747.601 C138.733,749.587 141.152,750.894 143.88,751.031 C143.824,750.791 143.795,750.54 143.795,750.283 C143.795,748.47 145.265,747 147.077,747 C148.022,747 148.875,747.399 149.473,748.037 C150.221,747.89 150.924,747.617 151.558,747.241 C151.313,748.007 150.792,748.65 150.115,749.057 C150.779,748.977 151.411,748.801 152,748.54 C151.56,749.198 151.003,749.776 150.362,750.239 C150.368,750.38 150.372,750.521 150.372,750.664 Z" id="Fill-93"></path>
        </g>
    </g>
</svg>